<svg xmlns="http://www.w3.org/2000/svg" xmlns:xlink="http://www.w3.org/1999/xlink" width="500" zoomAndPan="magnify" viewBox="0 0 375 374.999991" height="500" preserveAspectRatio="xMidYMid meet" version="1.0"><defs><g/><clipPath id="7c20a22bbe"><rect x="0" width="161" y="0" height="307"/></clipPath><clipPath id="3c73999248"><rect x="0" width="261" y="0" height="356"/></clipPath></defs><rect x="-37.5" width="450" fill="#ffffff" y="-37.499999" height="449.999989" fill-opacity="1"/><rect x="-37.5" width="450" fill="#ffffff" y="-37.499999" height="449.999989" fill-opacity="1"/><g transform="matrix(1, 0, 0, 1, 145, 68)"><g clip-path="url(#7c20a22bbe)"><g fill="#000000" fill-opacity="1"><g transform="translate(0.958618, 257.828689)"><g><path d="M 19.171875 -2.625 C 23.722656 -2.625 27.613281 -4.242188 30.84375 -7.484375 C 34.082031 -10.722656 35.789062 -14.617188 35.96875 -19.171875 L 35.96875 -166.203125 C 35.96875 -170.398438 34.304688 -173.941406 30.984375 -176.828125 C 27.660156 -179.722656 23.722656 -181.171875 19.171875 -181.171875 L 16.015625 -181.171875 L 15.75 -183.796875 L 69.046875 -183.796875 C 74.472656 -183.796875 80.378906 -184.316406 86.765625 -185.359375 C 93.160156 -186.410156 97.671875 -187.460938 100.296875 -188.515625 L 100.296875 -155.4375 L 97.671875 -155.4375 L 97.671875 -160.15625 C 97.671875 -164.363281 96.226562 -167.953125 93.34375 -170.921875 C 90.457031 -173.898438 87 -175.476562 82.96875 -175.65625 L 53.03125 -175.65625 L 53.03125 -94.515625 L 102.921875 -94.515625 C 106.421875 -94.691406 109.394531 -96.003906 111.84375 -98.453125 C 114.300781 -100.910156 115.53125 -103.976562 115.53125 -107.65625 L 115.53125 -111.328125 L 118.15625 -111.328125 L 118.15625 -69.84375 L 115.53125 -69.84375 L 115.53125 -73.78125 C 115.53125 -77.28125 114.347656 -80.253906 111.984375 -82.703125 C 109.617188 -85.160156 106.6875 -86.472656 103.1875 -86.640625 L 53.03125 -86.640625 L 53.03125 -8.140625 L 108.96875 -8.140625 C 121.914062 -8.140625 131.800781 -11.023438 138.625 -16.796875 C 145.457031 -22.578125 151.148438 -31.15625 155.703125 -42.53125 L 158.328125 -42.53125 L 143.09375 0 L 15.75 0 L 15.75 -2.625 Z M 19.171875 -2.625 "/></g></g></g></g></g><g transform="matrix(1, 0, 0, 1, 35, 17)"><g clip-path="url(#3c73999248)"><g fill="#000000" fill-opacity="1"><g transform="translate(3.866214, 257.155499)"><g><path d="M 203.484375 -235.25 C 209.441406 -239.28125 216.53125 -242.429688 224.75 -244.703125 C 232.976562 -246.984375 239.628906 -248.125 244.703125 -248.125 C 249.785156 -248.125 253.023438 -248.125 254.421875 -248.125 L 254.421875 -245.5 C 246.191406 -245.144531 238.488281 -243.523438 231.3125 -240.640625 C 224.144531 -237.753906 218.238281 -234.425781 213.59375 -230.65625 C 208.957031 -226.894531 204.453125 -221.90625 200.078125 -215.6875 C 195.703125 -209.476562 192.332031 -204.1875 189.96875 -199.8125 C 187.601562 -195.4375 184.847656 -189.832031 181.703125 -183 L 108.703125 -23.375 C 102.222656 -9.1875 98.984375 -0.171875 98.984375 3.671875 L 96.625 3.671875 L 22.84375 -164.625 C 20.394531 -170.226562 17.023438 -174.382812 12.734375 -177.09375 C 8.441406 -179.8125 4.109375 -181.171875 -0.265625 -181.171875 L -2.359375 -181.171875 L -2.359375 -183.796875 L 56.71875 -183.796875 L 56.71875 -181.171875 L 54.359375 -181.171875 C 49.109375 -181.171875 45.601562 -178.71875 43.84375 -173.8125 C 43.5 -172.757812 43.328125 -171.535156 43.328125 -170.140625 C 43.328125 -168.742188 43.765625 -166.992188 44.640625 -164.890625 L 99.515625 -27.3125 L 164.625 -183 C 174.957031 -207.332031 187.910156 -224.75 203.484375 -235.25 Z M 203.484375 -235.25 "/></g></g></g></g></g></svg>