<?xml version="1.0" encoding="utf-8"?>
<!-- Generator: Adobe Illustrator 24.3.0, SVG Export Plug-In . SVG Version: 6.00 Build 0)  -->
<svg version="1.1" id="Layer_1" xmlns="http://www.w3.org/2000/svg" xmlns:xlink="http://www.w3.org/1999/xlink" x="0px" y="0px"
	 viewBox="0 0 238.1 242.4" style="enable-background:new 0 0 238.1 242.4;" xml:space="preserve">
<style type="text/css">
	.st0{clip-path:url(#SVGID_2_);}
	.st1{clip-path:url(#SVGID_2_);fill:#FFFFFF;}
	.st2{fill:#FFFFFF;}
</style>
<g>
	<g>
		<g>
			<path d="M35.3,128.7h1.3l-2.6,7.1h-1.8l-2.2-7.1h1.4l1.8,6L35.3,128.7z"/>
		</g>
		<g>
			<path d="M44.7,135.8v-7.1H46v7.1H44.7z"/>
		</g>
		<g>
			<path d="M59.7,128.7H61v7.1h-1.1l-3.5-5v5H55v-7.1h1.1l3.5,5V128.7z"/>
		</g>
		<g>
			<path d="M76.1,134.4c-0.3,0.5-0.7,0.8-1.2,1.1c-0.5,0.3-1,0.4-1.7,0.4c-0.7,0-1.4-0.1-1.9-0.4s-0.9-0.7-1.2-1.2
				c-0.3-0.5-0.4-1.1-0.4-1.9c0-0.8,0.2-1.4,0.5-2c0.3-0.6,0.7-1,1.3-1.3c0.5-0.3,1.2-0.5,1.9-0.5c0.6,0,1.1,0.1,1.6,0.4
				c0.4,0.2,0.8,0.6,1.1,1.1l-1,0.7c-0.2-0.3-0.4-0.6-0.7-0.7c-0.3-0.2-0.6-0.2-1-0.2c-0.5,0-0.9,0.1-1.2,0.3
				c-0.3,0.2-0.6,0.5-0.8,0.9s-0.3,0.8-0.3,1.4c0,0.7,0.2,1.3,0.6,1.7c0.4,0.4,0.9,0.6,1.6,0.6c0.4,0,0.7-0.1,1.1-0.3
				c0.3-0.2,0.6-0.4,0.8-0.8L76.1,134.4z"/>
		</g>
		<g>
			<path d="M88.9,129.8h-3.3v1.8h3.1v1.1h-3.1v1.9h3.4l-0.1,1.1h-4.6v-7.1h4.6V129.8z"/>
		</g>
		<g>
			<path d="M102.8,128.7l-0.2,1.1h-2.2v6h-1.3v-6h-2.3v-1.1H102.8z"/>
		</g>
		<g>
			<path d="M115.6,129.8h-3.3v1.8h3.1v1.1h-3.1v1.9h3.4l-0.1,1.1H111v-7.1h4.6V129.8z"/>
		</g>
		<g>
			<path d="M138.9,129.8h-3.3v1.8h3.1v1.1h-3.1v1.9h3.4l-0.1,1.1h-4.6v-7.1h4.6V129.8z"/>
		</g>
		<g>
			<path d="M152.1,128.7h1.3l-2.6,7.1H149l-2.2-7.1h1.4l1.8,6L152.1,128.7z"/>
		</g>
		<g>
			<path d="M166.1,129.8h-3.3v1.8h3.1v1.1h-3.1v1.9h3.4l-0.1,1.1h-4.6v-7.1h4.6V129.8z"/>
		</g>
		<g>
			<path d="M179.5,128.7h1.3v7.1h-1.1l-3.5-5v5h-1.3v-7.1h1.1l3.5,5V128.7z"/>
		</g>
		<g>
			<path d="M195,128.7l-0.2,1.1h-2.2v6h-1.3v-6H189v-1.1H195z"/>
		</g>
		<g>
			<path d="M205.4,135.9c-0.8,0-1.5-0.2-2-0.6c-0.5-0.4-0.7-0.9-0.8-1.6l1.2-0.2c0.1,0.9,0.7,1.3,1.6,1.3c0.4,0,0.7-0.1,1-0.2
				c0.2-0.2,0.3-0.4,0.3-0.7c0-0.3-0.1-0.5-0.3-0.6c-0.2-0.1-0.6-0.3-1.1-0.4c-0.5-0.1-0.9-0.2-1.2-0.4c-0.3-0.2-0.6-0.4-0.8-0.6
				c-0.2-0.3-0.3-0.6-0.3-1.1c0-0.4,0.1-0.8,0.3-1.1s0.5-0.6,0.9-0.8c0.4-0.2,0.8-0.3,1.3-0.3c0.7,0,1.2,0.2,1.6,0.5
				c0.4,0.3,0.7,0.8,0.7,1.4l-1.1,0.2c-0.1-0.7-0.6-1-1.3-1c-0.3,0-0.6,0.1-0.8,0.3s-0.3,0.4-0.3,0.7c0,0.3,0.1,0.5,0.3,0.7
				c0.2,0.2,0.6,0.3,1.1,0.4c0.5,0.1,0.9,0.2,1.2,0.4c0.3,0.1,0.6,0.3,0.8,0.6c0.2,0.3,0.3,0.6,0.3,1c0,0.4-0.1,0.8-0.3,1.1
				c-0.2,0.3-0.5,0.6-0.9,0.7C206.4,135.8,205.9,135.9,205.4,135.9z"/>
		</g>
	</g>
	<g>
		<g>
			<path d="M194.5,186.1c-2.8,6.9-6.2,12.1-10.3,15.6s-10.1,5.2-17.9,5.2h-33.8v-47.5h30.3c2.1,0.1,3.9,0.9,5.3,2.4
				c1.4,1.5,2.1,3.3,2.1,5.4v2.4h1.6v-25.1h-1.6v2.2c0,2.2-0.7,4.1-2.2,5.6c-1.5,1.5-3.3,2.3-5.4,2.4h-30.2v-14.5h-10.3v60
				c-0.1,2.8-1.1,5.1-3.1,7.1c-2,2-4.3,2.9-7.1,2.9h-2.1v1.6h77l9.2-25.7H194.5z M111.9,102.3c2.8,0,5.1,0.9,7.2,2.6
				c0.4,0.3,0.7,0.7,1,1c1.3,1.6,2,3.4,2,5.4v12.9h10.3v-18.6h18.1c2.4,0.1,4.5,1.1,6.3,2.9c1.8,1.8,2.6,4,2.6,6.5v2.9h1.6v-20
				c-1.6,0.6-4.3,1.3-8.2,1.9c-3.9,0.6-7.4,1-10.7,1h-32.2l0.2,1.6H111.9z"/>
		</g>
		<path d="M183.5,30.6c-3.1,0-7.1,0.7-12.1,2.1c-5,1.4-9.3,3.3-12.9,5.7c-9.4,6.3-17.3,16.9-23.5,31.6l-12.9,30.8l-2.2,5.2
			l-7.7,18.3h8.2l1.5-3.2l9.3-20.3l14.1-30.8c1.9-4.1,3.6-7.5,5-10.2c1.4-2.6,3.5-5.8,6.1-9.6c2.6-3.8,5.4-6.8,8.2-9.1
			c2.8-2.3,6.4-4.3,10.7-6c4.3-1.7,9-2.7,14-2.9v-1.6H183.5z"/>
		<path d="M95.7,164.1l-9.5-23.9H75.3L94,182.8h1.4c0-2.3,2-7.8,5.9-16.4l12-26.2h-7.6L95.7,164.1z"/>
		<path d="M62.5,80.9c-0.5-1.3-0.8-2.3-0.8-3.2c0-0.9,0.1-1.6,0.3-2.2c1.1-3,3.2-4.4,6.4-4.4h1.4v-1.6H34.1v1.6h1.3
			c2.6,0,5.3,0.8,7.9,2.5c2.6,1.6,4.6,4.2,6.1,7.5l18.9,43.2h11.5L62.5,80.9z"/>
	</g>
</g>
</svg>
